<svg height="512" viewBox="0 0 128 128" width="512" xmlns="http://www.w3.org/2000/svg"><g><g><path d="m29.405 27.25h9v36.75h-9z" fill="#eaeaf0"/><path d="m89.595 27.25h9v36.75h-9z" fill="#eaeaf0" transform="matrix(-1 0 0 -1 188.19 91.25)"/><path d="m12.5 20.404h103v10.096h-103z" fill="#d93922"/><path d="m23.405 60.998h30v51.502h-30z" fill="#fdd82e"/><path d="m18.905 109.5h39v8.375h-39z" fill="#ff9800"/><path d="m32.405 63.998h12v18h-12z" fill="#f7502f" transform="matrix(0 1 -1 0 111.403 34.593)"/><path d="m74.595 60.998h30v51.502h-30z" fill="#fdd82e" transform="matrix(-1 0 0 -1 179.19 173.498)"/><path d="m70.095 109.5h39v8.375h-39z" fill="#ff9800" transform="matrix(-1 0 0 -1 179.19 227.375)"/><g fill="#f7502f"><path d="m83.595 63.998h12v18h-12z" transform="matrix(0 1 -1 0 162.593 -16.597)"/><path d="m6.5 115.5h115v6h-115z"/><path d="m6.5 15.5h115v9h-115z"/></g><circle cx="64" cy="20.404" fill="#eaeaf0" r="13.904"/><path d="m70 22.789a6 6 0 0 1 -12 0c0-4.6 6-10.77 6-10.77s6 6.17 6 10.77z" fill="#fdd82e"/></g><g fill="#051720"><path d="m98.59 40.5a1.75 1.75 0 0 0 1.75-1.75v-6.5h15.16a1.75 1.75 0 0 0 1.75-1.75v-4.25h4.25a1.75 1.75 0 0 0 1.75-1.75v-9a1.75 1.75 0 0 0 -1.75-1.75h-43.352a15.62 15.62 0 0 0 -28.3 0h-20.848a1.75 1.75 0 0 0 0 3.5h19.665a15.022 15.022 0 0 0 -.123 5.5h-40.292v-5.5h4.833a1.75 1.75 0 0 0 0-3.5h-6.583a1.75 1.75 0 0 0 -1.75 1.75v9a1.75 1.75 0 0 0 1.75 1.75h4.25v4.25a1.75 1.75 0 0 0 1.75 1.75h15.16v27h-4.25a1.75 1.75 0 0 0 -1.75 1.75v39.06h-9.16a4.255 4.255 0 0 1 -4.25-4.25v-13.146h4.25a1.75 1.75 0 0 0 1.75-1.75v-9.814l2.119-1.518a1.75 1.75 0 0 0 -2.037-2.846l-8.852 6.341a1.753 1.753 0 0 0 -.73 1.423v21.31a7.759 7.759 0 0 0 7.75 7.75h9.16v4.19h-2.75a1.75 1.75 0 0 0 -1.75 1.75v4.25h-10.66a1.75 1.75 0 0 0 -1.75 1.75v6a1.75 1.75 0 0 0 1.75 1.75h115a1.75 1.75 0 0 0 1.75-1.75v-6a1.75 1.75 0 0 0 -1.75-1.75h-10.66v-4.25a1.75 1.75 0 0 0 -1.75-1.75h-2.75v-4.19h9.16a7.759 7.759 0 0 0 7.75-7.75v-21.31a1.753 1.753 0 0 0 -.73-1.423l-8.852-6.34a1.75 1.75 0 0 0 -2.037 2.846l2.119 1.517v9.813a1.75 1.75 0 0 0 1.75 1.75h4.25v13.147a4.255 4.255 0 0 1 -4.25 4.25h-9.16v-39.06a1.75 1.75 0 0 0 -1.75-1.75h-4.25v-12.331a1.75 1.75 0 0 0 -3.5 0v12.331h-5.5v-27h5.5v6.5a1.75 1.75 0 0 0 1.75 1.75zm-87.84 33.108v5.556h-2.5v-3.764zm106.5 5.556v-5.556l2.5 1.79v3.766zm-3.5-50.414h-36.53a15.664 15.664 0 0 0 1.29-2.5h35.24zm6-11.5v5.5h-40.292a15.022 15.022 0 0 0 -.123-5.5zm-55.75-9a12.154 12.154 0 1 1 -12.154 12.15 12.167 12.167 0 0 1 12.154-12.15zm-49.75 18h35.24a15.664 15.664 0 0 0 1.29 2.5h-36.53zm16.91 6h5.5v27h-5.5zm-10.5 79h10.34a1.75 1.75 0 0 0 0-3.5h-5.84v-45h26.5v45h-11.577a1.75 1.75 0 0 0 0 3.5h16.077v2.5h-35.5zm99.09 8.5h-111.5v-2.5h111.5zm-12.41-6h-35.5v-2.5h35.5zm-4.5-6h-26.5v-45h26.5zm-15-48.5h-13.25a1.75 1.75 0 0 0 -1.75 1.75v46.75h-2.75a1.75 1.75 0 0 0 -1.75 1.75v4.25h-8.68v-4.25a1.75 1.75 0 0 0 -1.75-1.75h-2.75v-46.75a1.75 1.75 0 0 0 -1.75-1.75h-13.25v-27h13.64a15.573 15.573 0 0 0 20.406 0h13.634z"/><path d="m29.405 80.748h18a1.749 1.749 0 0 0 1.75-1.748v-12a1.749 1.749 0 0 0 -1.75-1.75h-18a1.75 1.75 0 0 0 -1.75 1.75v12a1.75 1.75 0 0 0 1.75 1.748zm1.75-12h14.5v8.5h-14.5z"/><path d="m49.155 91a1.749 1.749 0 0 0 -1.75-1.75h-18a1.75 1.75 0 0 0 0 3.5h18a1.749 1.749 0 0 0 1.75-1.75z"/><path d="m78.845 67v12a1.749 1.749 0 0 0 1.75 1.75h18a1.75 1.75 0 0 0 1.75-1.75v-12a1.75 1.75 0 0 0 -1.75-1.75h-18a1.749 1.749 0 0 0 -1.75 1.75zm3.5 1.75h14.5v8.5h-14.5z"/><path d="m98.6 89.248h-18a1.75 1.75 0 0 0 0 3.5h18a1.75 1.75 0 0 0 0-3.5z"/><path d="m19.438 17.25h3.375a1.75 1.75 0 1 0 0-3.5h-3.375a1.75 1.75 0 0 0 0 3.5z"/><path d="m64 30.539a7.759 7.759 0 0 0 7.75-7.75c0-5.162-5.831-11.307-6.5-11.99a1.8 1.8 0 0 0 -2.508 0c-.665.683-6.5 6.828-6.5 11.99a7.759 7.759 0 0 0 7.758 7.75zm0-15.894c1.794 2.148 4.25 5.644 4.25 8.144a4.25 4.25 0 0 1 -8.5 0c0-2.5 2.456-5.996 4.25-8.144z"/></g></g></svg>