<svg height="512" viewBox="0 0 128 128" width="512" xmlns="http://www.w3.org/2000/svg"><g><g><path d="m54.952 70.519h9.125v6h-9.125z" fill="#3ba9fd"/><path d="m103.731 109.5h6v9h-6z" fill="#3ba9fd"/><path d="m88.885 55.5a4.5 4.5 0 0 1 4.5 4.5v58.5a0 0 0 0 1 0 0h-9a0 0 0 0 1 0 0v-58.5a4.5 4.5 0 0 1 4.5-4.5z" fill="#eaeaf0"/><path d="m52.077 109.5h-27.808l4.308-24.333h19.192z" fill="#0e8bce"/><path d="m18.269 103.808h39.808v14.692h-39.808z" fill="#3ba9fd"/><circle cx="38.173" cy="73.519" fill="#eaeaf0" r="19.904"/><path d="m39.144 65.134a9.573 9.573 0 0 1 2.293 8.012 10.113 10.113 0 0 0 2.276-1.632c1.306 4.717-.074 10.39-5.376 10.39-3.082 0-6.292-1.75-6.16-6.716a12.352 12.352 0 0 1 2.723-6.971 14.741 14.741 0 0 0 1.183 2.491 38.286 38.286 0 0 0 3.061-5.574z" fill="#f7502f"/><path d="m6.5 115.5h115v6h-115z" fill="#d8d8d8"/><path d="m37.109 12.5a6 6 0 1 0 -11.956.7 4.5 4.5 0 1 0 -2.384 8.3h14.34a4.5 4.5 0 0 0 0-9z" fill="#3ba9fd"/></g><g fill="#051720"><path d="m84.38 100.188a1.751 1.751 0 0 0 1.75-1.75v-4.014a1.75 1.75 0 0 0 -3.5 0v4.014a1.751 1.751 0 0 0 1.75 1.75z"/><path d="m50.248 83.472a15.534 15.534 0 0 0 3.036-5.858 1.75 1.75 0 0 0 -3.378-.917 12.055 12.055 0 0 1 -2.358 4.547 1.75 1.75 0 0 0 2.7 2.228z"/><path d="m44.11 80.914c1.819-2.392 2.313-6.172 1.289-9.867a1.751 1.751 0 0 0 -2.206-1.2 12.091 12.091 0 0 0 -2.7-5.826 1.749 1.749 0 0 0 -2.951.411c-.009.019-.542 1.227-1.308 2.654a1.751 1.751 0 0 0 -2.671 0c-.128.152-3.136 3.765-3.135 8.053a8.286 8.286 0 0 0 2.135 6.261 7.934 7.934 0 0 0 5.774 2.252 6.964 6.964 0 0 0 5.773-2.738zm-10.183-5.726a8.3 8.3 0 0 1 .808-3.363 1.75 1.75 0 0 0 2.78-.11 29.657 29.657 0 0 0 1.784-2.94 7.122 7.122 0 0 1 .445 3.931 1.75 1.75 0 0 0 2.466 2.01c.072-.035.144-.072.214-.109a6.724 6.724 0 0 1 -1.1 4.188 3.5 3.5 0 0 1 -2.988 1.359 4.592 4.592 0 0 1 -3.266-1.194 5.015 5.015 0 0 1 -1.143-3.772z"/><path d="m121.5 113.75h-10.02v-4.25a1.751 1.751 0 0 0 -1.75-1.75h-1.25v-22.23a13.757 13.757 0 0 0 -13.35-13.73v-11.79a6.247 6.247 0 0 0 -10.659-4.425 6.169 6.169 0 0 0 -1.841 4.425v11.77h-16.8v-1.25a1.751 1.751 0 0 0 -1.75-1.75h-4.78a21.666 21.666 0 0 0 -28.653-15.561 1.75 1.75 0 0 0 1.217 3.282 18.172 18.172 0 1 1 -6.9 4.57 1.75 1.75 0 1 0 -2.546-2.4 21.637 21.637 0 0 0 3.307 32.565l-1.913 10.834h-5.542a1.751 1.751 0 0 0 -1.75 1.75v9.94h-10.02a1.751 1.751 0 0 0 -1.75 1.75v6a1.751 1.751 0 0 0 1.75 1.75h115a1.751 1.751 0 0 0 1.75-1.75v-6a1.751 1.751 0 0 0 -1.75-1.75zm-16.02 0v-2.5h2.5v2.5zm-.5-28.23v22.23h-1.25a1.751 1.751 0 0 0 -1.75 1.75v4.25h-6.85v-38.46a10.254 10.254 0 0 1 9.85 10.23zm-42.65-13.25v2.5h-2.542c.024-.414.039-.831.039-1.251s-.015-.835-.038-1.249zm-3.034 6h4.784a1.751 1.751 0 0 0 1.75-1.75v-1.25h16.8v12.48a1.75 1.75 0 0 0 3.5 0v-27.75a2.7 2.7 0 0 1 .808-1.943 2.747 2.747 0 0 1 4.692 1.943v53.75h-5.5v-9.125a1.75 1.75 0 0 0 -3.5 0v9.125h-22.8v-9.94a1.751 1.751 0 0 0 -1.75-1.75h-5.543l-1.916-10.839a21.7 21.7 0 0 0 8.679-12.951zm-39.276 27.29h11.73a1.75 1.75 0 0 0 0-3.5h-4.384l1.584-8.955a21.6 21.6 0 0 0 18.449 0l1.584 8.956h-8.9a1.75 1.75 0 0 0 0 3.5h16.247v8.19h-36.31zm99.73 14.19h-111.5v-2.5h111.5z"/><path d="m72.005 26.75h22.381a4.75 4.75 0 0 0 0-9.5 1.75 1.75 0 0 0 0 3.5 1.25 1.25 0 0 1 0 2.5h-22.381a1.75 1.75 0 0 0 0 3.5z"/><path d="m111.052 30.521a1.25 1.25 0 0 1 0 2.5h-14.381a1.75 1.75 0 0 0 0 3.5h14.381a4.75 4.75 0 0 0 0-9.5 1.75 1.75 0 0 0 0 3.5z"/><path d="m57.909 36.521h10.319a1.75 1.75 0 0 0 0-3.5h-10.319a1.75 1.75 0 0 0 0 3.5z"/><path d="m22.769 23.25h14.34a6.25 6.25 0 0 0 1.6-12.293 7.751 7.751 0 0 0 -15.162-.157 6.111 6.111 0 0 0 -.778-.05 6.25 6.25 0 0 0 0 12.5zm0-9a2.694 2.694 0 0 1 1.453.429 1.75 1.75 0 0 0 2.669-1.679 4.541 4.541 0 0 1 -.032-.5 4.25 4.25 0 0 1 8.5 0 1.751 1.751 0 0 0 1.75 1.75 2.75 2.75 0 0 1 0 5.5h-14.34a2.75 2.75 0 0 1 0-5.5z"/></g></g></svg>