<svg height="512" viewBox="0 0 128 128" width="512" xmlns="http://www.w3.org/2000/svg"><g><g><path d="m117.058 118.5h-6v-42.5a9.01 9.01 0 0 0 -9-9h-19.833v-6h19.833a15.017 15.017 0 0 1 15 15z" fill="#eaeaf0"/><path d="m10.942 118.5h6v-42.5a9.01 9.01 0 0 1 9-9h19.833v-6h-19.833a15.017 15.017 0 0 0 -15 15z" fill="#eaeaf0"/><path d="m61 6.5h6v8.641h-6z" fill="#0e8bce"/><path d="m27.193 24.192h73.615v94.308h-73.615z" fill="#3ba9fd"/><path d="m39.193 12.5h49.614a12 12 0 0 1 12 12v3a0 0 0 0 1 0 0h-73.614a0 0 0 0 1 0 0v-3a12 12 0 0 1 12-12z" fill="#3ba9fd"/><g fill="#0e8bce"><path d="m6.5 115.5h115v6h-115z"/><path d="m24.192 24.192h79.615v6h-79.615z"/></g></g><g fill="#051720"><path d="m10.94 95.25a1.749 1.749 0 0 0 1.75-1.75v-4.708a1.75 1.75 0 0 0 -3.5 0v4.708a1.75 1.75 0 0 0 1.75 1.75z"/><path d="m93.058 87.72v7a1.75 1.75 0 0 0 3.5 0v-7a1.75 1.75 0 0 0 -3.5 0z"/><path d="m121.5 113.75h-2.69v-37.75a16.759 16.759 0 0 0 -16.25-16.725v-11.087a1.75 1.75 0 1 0 -3.5 0v65.562h-25.31v-81.808h25.31v6.891a1.75 1.75 0 0 0 3.5 0v-6.891h1.248a1.75 1.75 0 0 0 1.75-1.75v-6a1.751 1.751 0 0 0 -1.75-1.75h-1.416a13.642 13.642 0 0 0 -13.582-11.692h-20.06v-4.25a1.75 1.75 0 0 0 -1.75-1.75h-6a1.75 1.75 0 0 0 -1.75 1.75v4.25h-20.06a13.642 13.642 0 0 0 -13.582 11.692h-1.416a1.751 1.751 0 0 0 -1.75 1.75v6a1.75 1.75 0 0 0 1.75 1.75h1.248v27.333a16.759 16.759 0 0 0 -16.25 16.725v5.917a1.75 1.75 0 0 0 3.5 0v-5.917a13.256 13.256 0 0 1 12.75-13.225v2.5a10.755 10.755 0 0 0 -10.25 10.725v37.75h-2.5v-13.25a1.75 1.75 0 0 0 -3.5 0v13.25h-2.69a1.75 1.75 0 0 0 -1.75 1.75v6a1.75 1.75 0 0 0 1.75 1.75h115a1.75 1.75 0 0 0 1.75-1.75v-6a1.75 1.75 0 0 0 -1.75-1.75zm-6.19-37.75v37.75h-2.5v-37.75a10.755 10.755 0 0 0 -10.25-10.725v-2.5a13.256 13.256 0 0 1 12.75 13.225zm-12.75-7.225a7.254 7.254 0 0 1 6.75 7.225v37.75h-6.75zm-44.81 16.539v-5.979h12.5v5.979zm12.5 3.5v5.979h-12.5v-5.979zm-12.5-12.979v-5.978h12.5v5.978zm0-9.478v-5.979h12.5v5.979zm0-9.479v-5.978h12.5v5.979zm0 41.415h12.5v5.978h-12.5zm12.5-50.893h-12.5v-5.979h12.5zm-12.5 60.372h12.5v5.979h-12.5zm12.5-69.85h-12.5v-5.98h12.5zm-7.5-29.672h2.5v2.5h-2.5zm-23.56 6h49.62a10.167 10.167 0 0 1 10.033 8.192h-50.176a1.75 1.75 0 0 0 0 3.5h53.391v2.5h-1.224-.024-.025-73.57-.025-.024-1.224v-2.5h13.433a1.75 1.75 0 0 0 0-3.5h-10.218a10.167 10.167 0 0 1 10.033-8.192zm15.06 17.692v81.808h-25.31v-81.808zm-35.56 44.058a7.254 7.254 0 0 1 6.75-7.225v44.975h-6.75zm101.06 43.75h-111.5v-2.5h111.5z"/></g></g></svg>