<svg height="512" viewBox="0 0 64 64" width="512" xmlns="http://www.w3.org/2000/svg"><g id="Filled_outline" data-name="Filled outline"><path d="m8 3h48v4h-48z" fill="#f9bb4b"/><path d="m53 13h-42l-1-6h44z" fill="#4da19a"/><path d="m14 56h4a0 0 0 0 1 0 0v3a2 2 0 0 1 -2 2 2 2 0 0 1 -2-2v-3a0 0 0 0 1 0 0z" fill="#394d5c"/><path d="m14 52h4v4h-4z" fill="#fcf05a"/><path d="m46 56h4a0 0 0 0 1 0 0v3a2 2 0 0 1 -2 2 2 2 0 0 1 -2-2v-3a0 0 0 0 1 0 0z" fill="#394d5c"/><path d="m46 52h4v4h-4z" fill="#fcf05a"/><path d="m8.098 17h-5.098v4h5.293z" fill="#4da19a"/><path d="m8.488 25h-3.488a2 2 0 0 0 -2 2v6a2 2 0 0 0 2 2h3.976z" fill="#4da19a"/><path d="m10 13a1.925 1.925 0 0 0 -2 2l2 41a2 2 0 0 0 2 2h2v-6h4v6h2a2 2 0 0 0 2-2v-4h20v4a2 2 0 0 0 2 2h2v-6h4v6h2a2 2 0 0 0 2-2l2-41a1.925 1.925 0 0 0 -2-2z" fill="#98ecb7"/><path d="m55.902 17h5.098v4h-5.293z" fill="#4da19a"/><path d="m55.512 25h3.488a2 2 0 0 1 2 2v6a2 2 0 0 1 -2 2h-3.976z" fill="#4da19a"/><path d="m12 46h2v2h-2z" fill="#f4f4e6"/><path d="m16 46h2v2h-2z" fill="#f4f4e6"/><path d="m39 24-5-5a2.715 2.715 0 0 0 -4 0l-1 1 7 7-2 2h7v-7z" fill="#8ec13f"/><path d="m24.464 21.879h7.071v4.243h-7.071z" fill="#fcf05a" transform="matrix(.707 -.707 .707 .707 -8.77 26.828)"/><path d="m22 34-4 4a2.715 2.715 0 0 0 0 4l1 1 6-6.022 2 2.022v-7h-7z" fill="#8ec13f"/><path d="m20.379 40.672h4.243v5.657h-4.243z" fill="#fcf05a" transform="matrix(.707 -.707 .707 .707 -24.169 28.651)"/><path d="m39 44h6c3 0 3.473-2.107 3-4h-9v-2.667l-6 4.667 6 4.667z" fill="#8ec13f"/><path d="m48 40-2-7h-4l2 7z" fill="#fcf05a"/><path d="m61 16h-4.047l.047-.953a2.85 2.85 0 0 0 -.785-2.121 3.041 3.041 0 0 0 -2.037-.908l.669-4.018h1.153a1 1 0 0 0 1-1v-4a1 1 0 0 0 -1-1h-48a1 1 0 0 0 -1 1v4a1 1 0 0 0 1 1h1.153l.67 4.018a3.041 3.041 0 0 0 -2.037.908 2.852 2.852 0 0 0 -.786 2.123l.047.951h-4.047a1 1 0 0 0 -1 1v4a1 1 0 0 0 1 1h4.34l.1 2h-2.44a3 3 0 0 0 -3 3v6a3 3 0 0 0 3 3h3.024l.976 20a3 3 0 0 0 3 3h1a3 3 0 0 0 6 0h1a3 3 0 0 0 3-3v-3h18v3a3 3 0 0 0 3 3h1a3 3 0 0 0 6 0h1a2.992 2.992 0 0 0 3-2.951l.977-20.049h3.023a3 3 0 0 0 3-3v-6a3 3 0 0 0 -3-3h-2.438l.1-2h4.338a1 1 0 0 0 1-1v-4a1 1 0 0 0 -1-1zm-57 4v-2h3.145l.1 2zm1 14a1 1 0 0 1 -1-1v-6a1 1 0 0 1 1-1h2.535l.147 3h-1.682v2h1.779l.147 3zm4-28v-2h46v2zm43.819 2-.666 4h-40.306l-.666-4zm-35.819 51a1 1 0 0 1 -2 0v-2h2zm0-4h-2v-2h2zm32 4a1 1 0 0 1 -2 0v-2h2zm0-4h-2v-2h2zm4 1a1 1 0 0 1 -1 1h-1v-5a1 1 0 0 0 -1-1h-4a1 1 0 0 0 -1 1v5h-1a1 1 0 0 1 -1-1v-4a1 1 0 0 0 -1-1h-20a1 1 0 0 0 -1 1v4a1 1 0 0 1 -1 1h-1v-5a1 1 0 0 0 -1-1h-4a1 1 0 0 0 -1 1v5h-1a1.015 1.015 0 0 1 -1-1.049l-2-41a.85.85 0 0 1 .234-.646 1.054 1.054 0 0 1 .766-.305h44a1.054 1.054 0 0 1 .767.307.848.848 0 0 1 .234.644zm6-30a1 1 0 0 1 1 1v6a1 1 0 0 1 -1 1h-2.925l.146-3h1.779v-2h-1.682l.147-3zm1-6h-3.243l.1-2h3.143z"/><path d="m52 16h-4v2h2.847l-.837 5.858 1.98.284 1-7a1 1 0 0 0 -.99-1.142z"/><path d="m50 26h2v2h-2z"/><path d="m12 46h2v2h-2z"/><path d="m16 46h2v2h-2z"/><path d="m26.293 28.707a1 1 0 0 0 1.414 0l4.293-4.293 2.586 2.586-1.293 1.293a1 1 0 0 0 .707 1.707h7a1 1 0 0 0 1-1v-7a1 1 0 0 0 -1.707-.707l-1.293 1.293-4.293-4.293a3.7 3.7 0 0 0 -5.414 0l-6 6a1 1 0 0 0 0 1.414zm4.414-9a1.714 1.714 0 0 1 2.586 0l5 5a1 1 0 0 0 1.414 0l.293-.293v3.586h-3.586l.293-.293a1 1 0 0 0 0-1.414l-6.293-6.293zm-1.707 1.707 1.586 1.586-3.586 3.586-1.586-1.586z"/><path d="m27 31h-7a1 1 0 0 0 -.707 1.707l1.293 1.293-3.293 3.293a3.7 3.7 0 0 0 0 5.414l5 5a1 1 0 0 0 1.414 0l3-3a1 1 0 0 0 0-1.414l-3.3-3.3 1.593-1.593 1.289 1.3a1 1 0 0 0 1.711-.7v-7a1 1 0 0 0 -1-1zm-2.414 13-1.586 1.586-2.586-2.586 1.586-1.586zm1.414-7.433-.289-.292a1 1 0 0 0 -.709-.3 1 1 0 0 0 -.708.294l-5.294 5.315-.292-.291a1.714 1.714 0 0 1 0-2.586l4-4a1 1 0 0 0 0-1.414l-.294-.293h3.586z"/><path d="m46.961 32.725a1 1 0 0 0 -.961-.725h-4a1 1 0 0 0 -.961 1.275l1.635 5.725h-2.674v-1.667a1 1 0 0 0 -1.614-.789l-6 4.666a1 1 0 0 0 0 1.58l6 4.666a1 1 0 0 0 1.614-.789v-1.667h5a4.049 4.049 0 0 0 3.406-1.4 4.4 4.4 0 0 0 .564-3.843c-.001-.006-2.009-7.032-2.009-7.032zm-1.715 1.275 1.428 5h-1.92l-1.428-5zm1.584 8.37a2.224 2.224 0 0 1 -1.83.63h-6a1 1 0 0 0 -1 1v.622l-3.371-2.622 3.371-2.622v.622a1 1 0 0 0 1 1h8.152a2.013 2.013 0 0 1 -.322 1.37z"/></g></svg>